<?xml version="1.0" encoding="utf-8"?>
<!-- Generator: Adobe Illustrator 24.2.1, SVG Export Plug-In . SVG Version: 6.00 Build 0)  -->
<svg version="1.1" xmlns="http://www.w3.org/2000/svg" xmlns:xlink="http://www.w3.org/1999/xlink" x="0px" y="0px"
	 viewBox="0 0 636.9 202.8" style="enable-background:new 0 0 636.9 202.8;" xml:space="preserve">
<style type="text/css">
	.st0{display:none;}
	.st1{display:inline;fill:#FCFAFA;}
	.st2{opacity:0.25;fill:#E0C3FC;}
	.st3{opacity:0.2;fill:#E0C3FC;}
	.st4{opacity:0.15;fill:#E0C3FC;}
	.st5{opacity:0.1;fill:#E0C3FC;}
	.st6{fill:none;stroke:#EDEDED;stroke-width:1.5;stroke-linecap:round;stroke-linejoin:round;stroke-miterlimit:10;}
	.st7{fill:none;stroke:#EDEDED;stroke-width:3;stroke-linecap:round;stroke-linejoin:round;stroke-miterlimit:10;}
	.st8{display:inline;}
	.st9{fill:none;stroke:#8EC5FC;stroke-width:2;stroke-linecap:round;stroke-linejoin:round;stroke-dasharray:7.97,7.97;}
	.st10{display:inline;opacity:0.3;fill:#8EC5FC;}
	.st11{fill:none;stroke:#FFFFFF;stroke-width:1.5;stroke-linecap:round;stroke-linejoin:round;}
	.st12{fill:none;stroke:#FFFFFF;stroke-width:1.5;stroke-linecap:round;stroke-linejoin:round;stroke-dasharray:7.9575,7.9575;}
	.st13{fill:#FFFFFF;}
	.st14{fill:none;stroke:#29497A;stroke-width:3;stroke-linecap:round;stroke-miterlimit:10;}
	.st15{fill:none;stroke:#F2F2F2;stroke-width:3;stroke-linecap:round;stroke-linejoin:round;stroke-miterlimit:10;}
	.st16{display:none;opacity:0.5;}
	
		.st17{display:inline;fill:none;stroke:#5BB3FC;stroke-width:1.5;stroke-linecap:round;stroke-miterlimit:10;stroke-dasharray:10.2683,10.2683;}
	.st18{display:none;opacity:0.5;fill:#8EC5FC;stroke:#5BB3FC;stroke-miterlimit:10;}
	.st19{display:none;fill:#FFFFFF;stroke:#29497A;stroke-width:2;stroke-miterlimit:10;}
	.st20{fill:#819FCC;stroke:#29497A;stroke-width:2;stroke-miterlimit:10;}
	.st21{fill:#FFFFFF;stroke:#29497A;stroke-width:2;stroke-miterlimit:10;}
	.st22{opacity:0.5;fill:#8EC5FC;stroke:#5BB3FC;stroke-miterlimit:10;}
	.st23{opacity:0.5;}
	.st24{fill:none;stroke:#5BB3FC;stroke-width:1.5;stroke-linecap:round;stroke-miterlimit:10;stroke-dasharray:10.2683,10.2683;}
</style>
<g id="BG">
	
		<image style="display:none;overflow:visible;" width="3360" height="2100" id="BG_Preview" xlink:href="../../Screenshot 2020-07-08 at 12.01.24.png"  transform="matrix(0.5 0 0 0.5 -699.776 -645.5121)">
	</image>
	<g id="Layer_2" class="st0">
		<rect x="-701.9" y="-131.7" class="st1" width="1681" height="534.8"/>
	</g>
	<g id="Layer_7">
		<rect x="479.4" y="36.2" class="st2" width="154.4" height="157.9"/>
		<rect x="323.1" y="36.2" class="st3" width="156" height="157.9"/>
		<rect x="165.9" y="36.2" class="st4" width="156" height="157.9"/>
		<rect x="9.1" y="36.2" class="st5" width="156" height="157.9"/>
	</g>
</g>
<g id="Grid">
	<line id="HORIZONTAL" class="st6" x1="0.9" y1="111.6" x2="631.5" y2="111.6"/>
	<line id="Vertical1_1_" class="st6" x1="87.3" y1="31" x2="87.3" y2="199.4"/>
	<line id="Vertical1_2_" class="st6" x1="165.9" y1="31" x2="165.9" y2="199.4"/>
	<line id="Vertical1_3_" class="st6" x1="243.6" y1="31" x2="243.6" y2="199.4"/>
	<line id="Vertical1_4_" class="st6" x1="322.3" y1="31" x2="322.3" y2="199.4"/>
	<line id="Vertical1_5_" class="st6" x1="399.3" y1="31" x2="399.3" y2="199.4"/>
	<line id="Vertical1_6_" class="st6" x1="477.1" y1="31" x2="477.1" y2="199.4"/>
	<line id="Vertical1_7_" class="st6" x1="554.2" y1="31" x2="554.2" y2="199.4"/>
	<line id="Vertical1_8_" class="st7" x1="632.9" y1="31" x2="632.9" y2="199.4"/>
	<g id="SPACER" class="st0">
		<g id="Spacer" class="st8">
			<path class="st9" d="M310.6-17.1h-133c-6.6,0-12,5.4-12,12v188c0,6.6,5.4,12,12,12h133c6.6,0,12-5.4,12-12v-188
				C322.6-11.7,317.2-17.1,310.6-17.1z"/>
		</g>
		<path id="Spacer_Fill" class="st10" d="M309.9-16.2H178.3c-6.6,0-12,5.4-12,12v186c0,6.6,5.4,12,12,12h131.5c6.6,0,12-5.4,12-12
			v-186C321.9-10.8,316.5-16.2,309.9-16.2z"/>
	</g>
</g>
<g id="Faded_Out_Grid">
	<g>
		<g>
			<path class="st11" d="M87,170.1c1.3,0.5,2.5,1,3.7,1.4"/>
			<path class="st12" d="M98.3,174.1c30.8,10.3,50.5,9.6,67.3,6.8c32.2-5.2,45.4-18.3,78-20.1c38.2-2.1,48.9,15.1,78,10
				c39.5-6.9,45.1-40.7,77.3-41.9c33.1-1.2,46,34,78,33.5c41-0.6,47.4-50.9,77.1-50.9c22.2,0,39,39.2,66.9,44.2
				c8.1,1.4,23.3-3.4,32.9-7"/>
			<path class="st11" d="M657.5,147.4c1.6-0.6,2.8-1.2,3.7-1.6"/>
		</g>
	</g>
	<circle class="st13" cx="87.3" cy="170.4" r="2"/>
	<circle class="st13" cx="165.9" cy="181" r="2"/>
	<circle class="st13" cx="243.6" cy="160.8" r="2"/>
	<circle class="st13" cx="322.3" cy="170.9" r="2"/>
	<circle class="st13" cx="398.9" cy="128.9" r="2"/>
	<circle class="st13" cx="477.1" cy="162.5" r="2"/>
	<circle class="st13" cx="554.2" cy="111.9" r="2"/>
</g>
<g id="Graph">
	<g id="gun2pw.tif" class="st0">
		
			<image style="display:inline;overflow:visible;" width="910" height="332" id="Layer_0_1_" xlink:href="5A20A9F8A65EBD79.png"  transform="matrix(1.3303 0 0 1.3303 -514.2329 -114.3875)">
		</image>
	</g>
	<g id="Stroke">
		<path class="st14" d="M85.2,132.4c18.4,0,56.7,19.3,80.4,19.3c39.3,0,44.3-49.4,77-49.4c35.9,0,47.1,32,78.9,32
			c48.2,0,34.3-64.8,77-64.8c51.2,0,32.9,57.1,78.4,57.1c51.7,0,15.6-86.1,77.5-86.1c57,0,24,71.9,76.7,71.9"/>
	</g>
	<line id="Vertical1_9_" class="st15" x1="632.9" y1="36.2" x2="632.9" y2="194.2"/>
	<g id="Point_1">
		<g class="st16">
			<circle class="st17" cx="87.4" cy="133" r="39.2"/>
		</g>
		<circle class="st18" cx="87.4" cy="133" r="45"/>
		<circle class="st18" cx="87.4" cy="133" r="26"/>
		<circle class="st19" cx="87.4" cy="133" r="16"/>
		<circle class="st20" cx="87.4" cy="133" r="7.5"/>
	</g>
	<g id="Point_2">
		<g class="st16">
			<circle class="st17" cx="243.2" cy="105.3" r="39.2"/>
		</g>
		<circle class="st18" cx="243.2" cy="105.3" r="45"/>
		<circle class="st18" cx="243.2" cy="105.3" r="26"/>
		<circle class="st21" cx="243.2" cy="105.3" r="16"/>
		<circle class="st20" cx="243.2" cy="105.3" r="7.5"/>
	</g>
	<g id="Point_3">
		<g class="st16">
			<circle class="st17" cx="399.2" cy="71.7" r="39.2"/>
		</g>
		<circle class="st18" cx="399.2" cy="71.7" r="45"/>
		<circle class="st22" cx="399.2" cy="71.7" r="26"/>
		<circle class="st21" cx="399.2" cy="71.7" r="16"/>
		<circle class="st20" cx="399.2" cy="71.7" r="7.5"/>
	</g>
	<g id="Point_4">
		<g class="st23">
			<circle class="st24" cx="554.3" cy="43.2" r="39.2"/>
		</g>
		<circle class="st18" cx="554.3" cy="43.2" r="45"/>
		<circle class="st22" cx="554.3" cy="43.2" r="26"/>
		<circle class="st21" cx="554.3" cy="43.2" r="16"/>
		<circle class="st20" cx="554.3" cy="43.2" r="7.5"/>
	</g>
</g>
<g id="Layer_8">
</g>
</svg>
